<svg width="310" height="178" viewBox="0 0 310 178" fill="none" xmlns="http://www.w3.org/2000/svg">
    <path
        d="M45.1318 95.0932L47.421 98.8788C47.421 98.8788 49.5819 98.6387 50.2742 98.8788C50.9666 99.1189 50.7544 107.745 50.1625 108.287C49.5707 108.829 47.7672 107.494 46.8683 106.846C45.9693 106.199 45.8967 102.798 45.8967 102.798L42.636 97.5946L45.1318 95.0932Z"
        fill="#EBB376" />
    <path
        d="M38.9843 81.7101C38.9843 83.0501 47.1586 97.556 47.1586 97.556L43.038 100.348C43.038 100.348 32.1501 84.7698 32.1501 81.3304C32.1501 77.891 49.3696 60.5095 53.6689 60.7049L54.8638 69.4822C54.8638 69.4822 54.5567 69.6888 54.0319 70.0406C52.6081 71.0233 49.5651 73.1394 46.6002 75.3114C42.742 78.1478 38.9843 81.0624 38.9843 81.7101Z"
        fill="#E9E9E9" />
    <path opacity="0.1"
        d="M54.0318 70.0626C52.608 71.0453 49.565 73.1615 46.6002 75.3335C46.5164 70.688 52.0776 67.0587 52.0776 67.0587C52.5854 67.4058 53.0195 67.8499 53.3549 68.3654C53.6902 68.881 53.9203 69.4578 54.0318 70.0626Z"
        fill="black" />
    <path
        d="M82.2174 112.542H80.5423C80.29 112.709 80.0228 112.853 79.7439 112.972C79.6601 113.011 79.487 112.843 79.2637 112.542H49.5874C49.7884 111.152 49.9838 109.867 50.1737 108.712C50.2128 108.499 50.2462 108.282 50.2798 108.069C50.3691 107.545 50.4528 107.042 50.531 106.573C50.5338 106.549 50.5338 106.525 50.531 106.5C50.6036 106.098 50.6762 105.724 50.7432 105.384C50.7432 105.261 50.7879 105.138 50.8046 105.015H82.128C82.128 105.144 82.128 105.267 82.128 105.389C82.128 106.389 82.1671 108.455 82.2006 111.269C82.1839 111.66 82.2118 112.095 82.2174 112.542Z"
        fill="#263238" />
    <path opacity="0.2"
        d="M82.2174 112.542H80.5423C80.29 112.709 80.0228 112.853 79.7439 112.972C79.6601 113.011 79.487 112.843 79.2637 112.542H49.5874C49.7884 111.152 49.9838 109.867 50.1737 108.712C50.2128 108.499 50.2462 108.282 50.2798 108.069C50.3691 107.545 50.4528 107.042 50.531 106.573C50.5338 106.549 50.5338 106.525 50.531 106.5C50.6036 106.098 50.6762 105.724 50.7432 105.384C50.7432 105.261 50.7879 105.138 50.8046 105.015H82.128C82.128 105.144 82.128 105.267 82.128 105.389C82.128 106.389 82.1671 108.455 82.2006 111.269C82.1839 111.66 82.2118 112.095 82.2174 112.542Z"
        fill="white" />
    <path d="M50.5478 105.351H82.0722V109.103L50.1458 108.712L50.5478 105.351Z" fill="#263238" />
    <path d="M71.9438 103.659H70.8159V110.32H71.9438V103.659Z" fill="#263238" />
    <path d="M55.9916 103.659H54.8638V110.32H55.9916V103.659Z" fill="#263238" />
    <path d="M64.9141 104.691H59.085V108.89H64.9141V104.691Z" fill="#01B7F8" />
    <path opacity="0.2" d="M71.9438 103.659H70.8159V110.32H71.9438V103.659Z" fill="white" />
    <path opacity="0.2" d="M55.9916 103.659H54.8638V110.32H55.9916V103.659Z" fill="white" />
    <path opacity="0.4" d="M64.9141 104.691H59.085V108.89H64.9141V104.691Z" fill="white" />
    <path
        d="M88.4318 63.0053C88.4318 63.0053 87.4268 67.1538 86.1984 73.1281C85.841 74.8925 85.4669 76.8133 85.0817 78.8289C83.496 87.4163 81.9717 97.8128 82.0945 105.351H50.5477C50.5477 105.351 48.4986 76.5564 53.6689 60.6825C53.6689 60.6937 73.5908 59.9399 88.4318 63.0053Z"
        fill="#E9E9E9" />
    <path
        d="M76.8015 61.5143C73.9371 64.1162 66.9298 63.1559 66.9298 63.1559C66.9298 63.1559 62.5579 61.9554 63.4792 60.593C66.0532 60.1631 67.2983 58.9627 67.8176 57.4216C68.0972 56.4675 68.1845 55.4673 68.0745 54.4791C68.0336 53.9285 67.9628 53.3805 67.8623 52.8375L76.5223 46.4221C75.3888 50.6432 73.9985 58.4601 76.8015 61.5143Z"
        fill="#EBB376" />
    <path opacity="0.2"
        d="M74.5233 50.4982C74.1771 55.6964 69.9058 57.1314 67.8231 57.4217C68.1027 56.4676 68.19 55.4674 68.08 54.4792L74.5233 50.4982Z"
        fill="black" />
    <path
        d="M61.8599 32.9548C61.8599 32.9548 59.4423 40.7717 63.2279 44.4847C67.0135 48.1978 69.2469 33.3178 69.2469 33.3178L61.8599 32.9548Z"
        fill="#263238" />
    <path
        d="M74.6015 52.6924C73.5138 53.8761 72.0676 54.6701 70.485 54.9525C68.9025 55.2349 67.271 54.9901 65.841 54.2557C63.9704 53.3387 62.522 51.7404 61.7929 49.7889C61.6888 49.5204 61.5993 49.2464 61.5249 48.9682C60.1681 43.7644 60.7879 35.1155 66.4384 32.6811C67.6843 32.1376 69.0486 31.9221 70.4013 32.0551C71.7541 32.1882 73.0503 32.6653 74.1664 33.4411C75.2825 34.2169 76.1815 35.2656 76.7776 36.4872C77.3737 37.7088 77.6472 39.0626 77.5719 40.4198C77.3485 46.2434 77.4881 49.6661 74.6015 52.6924Z"
        fill="#EBB376" />
    <path
        d="M70.0676 42.1787C70.1067 42.6477 69.8331 43.0386 69.5093 43.0441C69.1854 43.0497 68.9509 42.6701 68.9509 42.201C68.9509 41.732 69.191 41.3356 69.5093 41.33C69.8275 41.3244 70.0509 41.7097 70.0676 42.1787Z"
        fill="#263238" />
    <path
        d="M63.9873 42.2683C64.032 42.7373 63.7528 43.1337 63.429 43.1393C63.1051 43.1449 62.8706 42.7596 62.8706 42.2906C62.8706 41.8216 63.1107 41.4307 63.429 41.4252C63.7472 41.4196 63.9761 41.8383 63.9873 42.2683Z"
        fill="#263238" />
    <path
        d="M65.1319 42.5416C64.5975 44.0005 63.8627 45.3779 62.9487 46.6343C63.2786 46.8603 63.654 47.0114 64.0485 47.077C64.443 47.1426 64.8471 47.1211 65.2324 47.014L65.1319 42.5416Z"
        fill="#D58745" />
    <path
        d="M70.4027 40.4645C70.3523 40.4723 70.3008 40.4671 70.2529 40.4495C70.2051 40.432 70.1625 40.4025 70.1291 40.364C69.9199 40.0851 69.6484 39.8591 69.3362 39.7039C69.024 39.5488 68.6798 39.4689 68.3312 39.4707C68.2945 39.474 68.2576 39.47 68.2224 39.459C68.1873 39.448 68.1547 39.4302 68.1264 39.4067C68.0982 39.3831 68.0748 39.3541 68.0578 39.3215C68.0407 39.2889 68.0302 39.2533 68.0269 39.2166C68.0236 39.1799 68.0275 39.143 68.0385 39.1079C68.0495 39.0727 68.0673 39.0401 68.0909 39.0118C68.1145 38.9836 68.1434 38.9603 68.176 38.9432C68.2086 38.9261 68.2443 38.9156 68.2809 38.9123C68.7228 38.9044 69.1602 39.0015 69.5572 39.1957C69.9542 39.3898 70.2995 39.6754 70.5646 40.029C70.6115 40.0855 70.6343 40.1581 70.628 40.2313C70.6218 40.3045 70.587 40.3722 70.5311 40.4199C70.4917 40.4431 70.448 40.4583 70.4027 40.4645Z"
        fill="#263238" />
    <path
        d="M61.0894 40.5429C61.0366 40.5592 60.9802 40.5592 60.9275 40.5429C60.8602 40.5123 60.8074 40.4567 60.7803 40.388C60.7532 40.3192 60.7539 40.2426 60.7823 40.1743C60.9607 39.7704 61.2323 39.4145 61.575 39.136C61.9176 38.8574 62.3214 38.6641 62.7533 38.5719C62.8257 38.5623 62.899 38.5814 62.9575 38.6253C63.0159 38.6691 63.0549 38.7342 63.0659 38.8064C63.0741 38.8786 63.0544 38.9512 63.0108 39.0093C62.9672 39.0674 62.903 39.1067 62.8314 39.1191C62.4911 39.1993 62.1743 39.3583 61.9067 39.5833C61.639 39.8083 61.4279 40.093 61.2904 40.4144C61.2681 40.4491 61.2387 40.4785 61.204 40.5007C61.1693 40.5229 61.1302 40.5373 61.0894 40.5429Z"
        fill="#263238" />
    <path
        d="M73.1553 33.2618L72.7756 35.819C73.2023 36.0378 73.531 36.409 73.6965 36.859C73.862 37.309 73.8522 37.8048 73.669 38.2478C72.7812 40.3807 73.9091 43.7588 75.5283 45.1379C75.5283 45.1379 75.6065 44.2054 76.3882 44.4455C77.1699 44.6856 76.8181 49.5432 75.2156 51.8213C75.2156 51.8213 78.0074 49.3311 79.4479 44.2613C80.7935 39.5767 80.6539 36.1038 79.7327 34.2501L73.1553 33.2618Z"
        fill="#263238" />
    <path
        d="M80.2073 45.1435C79.5879 46.4723 78.4678 47.502 77.0917 48.0078C75.2659 48.6611 74.2106 47.0586 74.6015 45.2607C74.9588 43.6638 76.3324 41.3523 78.2252 41.4919C80.118 41.6315 80.9443 43.5075 80.2073 45.1435Z"
        fill="#EBB376" />
    <path
        d="M64.8025 48.4379C65.0396 49.1098 65.2263 49.7985 65.3608 50.4982C65.4893 50.4982 65.6121 50.4982 65.7405 50.4982C67.4491 50.42 68.214 49.817 68.5323 49.1749C68.6894 48.8596 68.768 48.5109 68.7612 48.1587C68.7622 47.9569 68.736 47.756 68.683 47.5613C67.8008 48.1475 66.2151 48.343 65.3608 48.41C65.0314 48.41 64.8025 48.4379 64.8025 48.4379Z"
        fill="#263238" />
    <path
        d="M65.3832 48.41L65.5674 49.0186C67.1755 48.9404 68.2978 48.6668 68.7835 48.1587C68.7846 47.9569 68.7583 47.756 68.7054 47.5613C67.8232 48.1364 66.2375 48.3318 65.3832 48.41Z"
        fill="white" />
    <path
        d="M65.7516 50.487C67.4601 50.4088 68.2251 49.8058 68.5433 49.1637C67.8956 49.2064 67.2604 49.3632 66.6673 49.6271C66.281 49.813 65.9613 50.1132 65.7516 50.487Z"
        fill="#DE5753" />
    <path
        d="M71.3798 34.1441C71.3798 34.1441 71.0001 37.1983 74.8192 38.7728C78.6383 40.3473 80.023 41.6874 80.023 41.6874C80.023 41.6874 82.597 34.1888 77.9236 31.4193C77.9236 31.4193 77.8231 29.99 73.8142 28.6276C69.8052 27.2652 64.0542 27.9017 61.4523 32.7315C59.4925 36.3607 61.3071 38.9403 61.3071 38.9403C61.3071 38.9403 61.6868 36.8353 65.411 36.3607C67.539 36.0681 69.5767 35.3114 71.3798 34.1441Z"
        fill="#263238" />
    <path
        d="M64.0766 62.7316L64.9197 66.8522C64.9197 66.8522 60.1179 86.8691 59.085 97.2488L60.8326 99.002L63.5853 97.2488C63.5853 97.2488 63.8309 76.1097 66.2598 67.2263L70.6093 63.6641L67.1866 62.5474L64.0766 62.7316Z"
        fill="#01B7F8" />
    <path
        d="M75.8187 57.5945L67.4993 61.3467L67.0079 58.3371L63.9537 59.4148C63.4182 59.6006 62.9612 59.9622 62.6571 60.4406C62.353 60.9191 62.2196 61.4863 62.2787 62.0502L62.6249 65.35L66.846 63.0385L68.951 66.0144L78.9454 61.2015L75.8187 57.5945Z"
        fill="#01B7F8" />
    <path opacity="0.9"
        d="M75.8187 57.5945L67.4993 61.3467L67.0079 58.3371L63.9537 59.4148C63.4182 59.6006 62.9612 59.9622 62.6571 60.4406C62.353 60.9191 62.2196 61.4863 62.2787 62.0502L62.6249 65.35L66.846 63.0385L68.951 66.0144L78.9454 61.2015L75.8187 57.5945Z"
        fill="white" />
    <path
        d="M76.0308 83.1005L73.1609 81.766L70.0229 82.6594L70.5422 75.6856L76.5445 76.1323L76.0308 83.1005Z"
        fill="#01B7F8" />
    <path opacity="0.2"
        d="M76.0308 83.1005L73.1609 81.766L70.0229 82.6594L70.5422 75.6856L76.5445 76.1323L76.0308 83.1005Z"
        fill="white" />
    <path
        d="M73.9818 70.1298L74.5569 70.5709L75.2492 70.3866L75.6959 70.9561L76.4162 70.9505L76.7065 71.615L77.4045 71.7881L77.5161 72.4972L78.1526 72.8433L78.0856 73.558L78.6161 74.0494L78.3704 74.7306L78.7668 75.3336L78.3592 75.931L78.5881 76.6178L78.0465 77.0924L78.0968 77.8127L77.4547 78.1421L77.3263 78.8512L76.6228 79.0131L76.3212 79.6664L75.601 79.644L75.1431 80.2024L74.4508 80.0014L73.8701 80.4313L73.2503 80.0684L72.5803 80.3364L72.0722 79.8283L71.3575 79.9232L70.989 79.3034L70.2687 79.2197L70.0677 78.5273L69.3977 78.2649L69.3698 77.5446L68.7835 77.1259L68.9399 76.4224L68.4764 75.8696L68.8059 75.2275L68.4932 74.5742L68.9678 74.0326L68.8282 73.3291L69.4201 72.9215L69.4591 72.2012L70.1403 71.9556L70.3581 71.2688L71.0783 71.1962L71.458 70.5876L72.1727 70.6993L72.692 70.1968L73.3564 70.4871L73.9818 70.1298Z"
        fill="#01B7F8" />
    <path opacity="0.4"
        d="M73.7875 79.62C76.1938 79.52 78.0634 77.4882 77.9634 75.0819C77.8634 72.6757 75.8316 70.8061 73.4253 70.9061C71.019 71.0061 69.1494 73.0378 69.2494 75.4441C69.3495 77.8504 71.3812 79.72 73.7875 79.62Z"
        fill="white" />
    <path
        d="M71.6925 76.1935L71.4635 77.1427L72.0722 77.1874L72.3066 76.2382L72.8371 76.2772L72.6026 77.2264L73.2224 77.2711L73.4457 76.3219L74.0822 76.3666L74.1715 75.959L74.2218 75.7635L73.5908 75.7189L73.7807 74.954L74.4172 75.0042L74.5568 74.3956L73.9259 74.3509L74.1827 73.2622L73.5741 73.2175L73.3061 74.3063L72.7813 74.2672L73.0437 73.1784L72.4351 73.1337L72.1727 74.2504L71.5641 74.2058L71.4189 74.8144L72.0275 74.8534L71.8376 75.6184L71.229 75.5737L71.1788 75.7691L71.0839 76.1767L71.6925 76.1935ZM73.1609 74.9037L72.9822 75.6686L72.4518 75.6296L72.6361 74.8646L73.1609 74.9037Z"
        fill="#01B7F8" />
    <path
        d="M75.0202 73.8318L74.9923 74.2617L75.5116 74.2952L75.3832 76.0428L75.2771 77.422L75.8857 77.4666L75.9918 76.0875L76.1928 73.413L75.7628 73.3795C75.6886 73.5114 75.5807 73.6213 75.4502 73.6978C75.322 73.7814 75.1732 73.8278 75.0202 73.8318Z"
        fill="#01B7F8" />
    <path
        d="M90.7211 100.493L89.5318 101.805L86.0142 105.713C86.0142 105.713 85.7629 107.472 85.0427 108.315C84.158 109.357 83.2088 110.341 82.2007 111.263C81.6784 111.742 81.1182 112.177 80.5256 112.564C80.2733 112.732 80.006 112.876 79.7272 112.994C79.6434 113.033 79.4703 112.866 79.247 112.564C78.4778 111.439 77.7749 110.271 77.142 109.064C76.7288 108.31 76.4385 107.746 76.4385 107.746C76.906 106.928 77.4167 106.136 77.9684 105.373C78.0527 105.243 78.144 105.118 78.242 104.999C79.2135 103.692 80.4419 102.313 81.6311 101.799C81.8092 101.729 81.9982 101.692 82.1895 101.688C82.9581 101.661 83.7275 101.699 84.4899 101.799L86.835 99.4321L89.677 96.5621L90.7211 100.493Z"
        fill="#EBB376" />
    <path
        d="M87.544 63.0945C91.8377 63.4462 105.97 82.8936 105.523 86.3051C105.076 89.7166 90.118 102.324 90.118 102.324L86.3882 99.0243C86.3882 99.0243 98.5212 87.1314 98.6719 85.8082C98.8227 84.4849 85.2157 71.6428 85.2157 71.6428L87.544 63.0945Z"
        fill="#E9E9E9" />
    <path opacity="0.1"
        d="M86.2152 73.1281C85.8579 74.8925 85.4838 76.8132 85.0985 78.8289C82.7981 74.3621 84.3168 68.7115 84.3168 68.7115C84.5234 70.8947 86.2152 73.1281 86.2152 73.1281Z"
        fill="black" />
    <path
        d="M22.89 139.9H24.69V152.5H22.89V139.9ZM28.6423 139.036C28.9783 139.036 29.2543 139.156 29.4703 139.396C29.6983 139.624 29.8123 139.912 29.8123 140.26C29.8123 140.44 29.7943 140.62 29.7583 140.8C29.7223 140.968 29.6443 141.214 29.5243 141.538L28.6603 144.058H27.5263L28.1923 141.376C27.9643 141.292 27.7783 141.154 27.6343 140.962C27.5023 140.758 27.4363 140.524 27.4363 140.26C27.4363 139.9 27.5503 139.606 27.7783 139.378C28.0063 139.15 28.2943 139.036 28.6423 139.036ZM44.2224 142.87C45.4224 142.87 46.3704 143.218 47.0664 143.914C47.7744 144.61 48.1284 145.642 48.1284 147.01V152.5H46.4004V147.208C46.4004 146.284 46.1844 145.588 45.7524 145.12C45.3324 144.652 44.7264 144.418 43.9344 144.418C43.0584 144.418 42.3624 144.694 41.8464 145.246C41.3304 145.786 41.0724 146.566 41.0724 147.586V152.5H39.3444V147.208C39.3444 146.284 39.1284 145.588 38.6964 145.12C38.2764 144.652 37.6704 144.418 36.8784 144.418C36.0024 144.418 35.3064 144.694 34.7904 145.246C34.2744 145.786 34.0164 146.566 34.0164 147.586V152.5H32.2884V142.96H33.9444V144.382C34.2924 143.89 34.7484 143.518 35.3124 143.266C35.8764 143.002 36.5184 142.87 37.2384 142.87C37.9824 142.87 38.6424 143.02 39.2184 143.32C39.7944 143.62 40.2384 144.058 40.5504 144.634C40.9104 144.082 41.4084 143.65 42.0444 143.338C42.6924 143.026 43.4184 142.87 44.2224 142.87ZM59.6159 142.87C60.9359 142.87 61.9439 143.194 62.6399 143.842C63.3479 144.49 63.7019 145.456 63.7019 146.74V152.5H62.0639V151.24C61.7759 151.684 61.3619 152.026 60.8219 152.266C60.2939 152.494 59.6639 152.608 58.9319 152.608C57.8639 152.608 57.0059 152.35 56.3579 151.834C55.7219 151.318 55.4039 150.64 55.4039 149.8C55.4039 148.96 55.7099 148.288 56.3219 147.784C56.9339 147.268 57.9059 147.01 59.2379 147.01H61.9739V146.668C61.9739 145.924 61.7579 145.354 61.3259 144.958C60.8939 144.562 60.2579 144.364 59.4179 144.364C58.8539 144.364 58.3019 144.46 57.7619 144.652C57.2219 144.832 56.7659 145.078 56.3939 145.39L55.6739 144.094C56.1659 143.698 56.7539 143.398 57.4379 143.194C58.1219 142.978 58.8479 142.87 59.6159 142.87ZM59.2199 151.276C59.8799 151.276 60.4499 151.132 60.9299 150.844C61.4099 150.544 61.7579 150.124 61.9739 149.584V148.252H59.3099C57.8459 148.252 57.1139 148.744 57.1139 149.728C57.1139 150.208 57.2999 150.586 57.6719 150.862C58.0439 151.138 58.5599 151.276 59.2199 151.276ZM80.3557 147.784C80.3557 147.916 80.3437 148.09 80.3197 148.306H72.5797C72.6877 149.146 73.0537 149.824 73.6777 150.34C74.3137 150.844 75.0997 151.096 76.0357 151.096C77.1757 151.096 78.0937 150.712 78.7897 149.944L79.7437 151.06C79.3117 151.564 78.7717 151.948 78.1237 152.212C77.4877 152.476 76.7737 152.608 75.9817 152.608C74.9737 152.608 74.0797 152.404 73.2997 151.996C72.5197 151.576 71.9137 150.994 71.4817 150.25C71.0617 149.506 70.8517 148.666 70.8517 147.73C70.8517 146.806 71.0557 145.972 71.4637 145.228C71.8837 144.484 72.4537 143.908 73.1737 143.5C73.9057 143.08 74.7277 142.87 75.6397 142.87C76.5517 142.87 77.3617 143.08 78.0697 143.5C78.7897 143.908 79.3477 144.484 79.7437 145.228C80.1517 145.972 80.3557 146.824 80.3557 147.784ZM75.6397 144.328C74.8117 144.328 74.1157 144.58 73.5517 145.084C72.9997 145.588 72.6757 146.248 72.5797 147.064H78.6997C78.6037 146.26 78.2737 145.606 77.7097 145.102C77.1577 144.586 76.4677 144.328 75.6397 144.328ZM94.6892 142.87C95.8892 142.87 96.8372 143.218 97.5332 143.914C98.2412 144.61 98.5952 145.642 98.5952 147.01V152.5H96.8672V147.208C96.8672 146.284 96.6512 145.588 96.2192 145.12C95.7992 144.652 95.1932 144.418 94.4012 144.418C93.5252 144.418 92.8292 144.694 92.3132 145.246C91.7972 145.786 91.5392 146.566 91.5392 147.586V152.5H89.8112V147.208C89.8112 146.284 89.5952 145.588 89.1632 145.12C88.7432 144.652 88.1372 144.418 87.3452 144.418C86.4692 144.418 85.7732 144.694 85.2572 145.246C84.7412 145.786 84.4832 146.566 84.4832 147.586V152.5H82.7552V142.96H84.4112V144.382C84.7592 143.89 85.2152 143.518 85.7792 143.266C86.3432 143.002 86.9852 142.87 87.7052 142.87C88.4492 142.87 89.1092 143.02 89.6852 143.32C90.2612 143.62 90.7052 144.058 91.0172 144.634C91.3772 144.082 91.8752 143.65 92.5112 143.338C93.1592 143.026 93.8852 142.87 94.6892 142.87ZM106.833 142.87C107.757 142.87 108.585 143.074 109.317 143.482C110.049 143.89 110.619 144.46 111.027 145.192C111.447 145.924 111.657 146.77 111.657 147.73C111.657 148.69 111.447 149.542 111.027 150.286C110.619 151.018 110.049 151.588 109.317 151.996C108.585 152.404 107.757 152.608 106.833 152.608C106.149 152.608 105.519 152.476 104.943 152.212C104.379 151.948 103.899 151.564 103.503 151.06V155.992H101.775V142.96H103.431V144.472C103.815 143.944 104.301 143.548 104.889 143.284C105.477 143.008 106.125 142.87 106.833 142.87ZM106.689 151.096C107.301 151.096 107.847 150.958 108.327 150.682C108.819 150.394 109.203 149.998 109.479 149.494C109.767 148.978 109.911 148.39 109.911 147.73C109.911 147.07 109.767 146.488 109.479 145.984C109.203 145.468 108.819 145.072 108.327 144.796C107.847 144.52 107.301 144.382 106.689 144.382C106.089 144.382 105.543 144.526 105.051 144.814C104.571 145.09 104.187 145.48 103.899 145.984C103.623 146.488 103.485 147.07 103.485 147.73C103.485 148.39 103.623 148.978 103.899 149.494C104.175 149.998 104.559 150.394 105.051 150.682C105.543 150.958 106.089 151.096 106.689 151.096ZM114.044 139.144H115.772V152.5H114.044V139.144ZM123.158 152.608C122.21 152.608 121.358 152.398 120.602 151.978C119.846 151.558 119.252 150.982 118.82 150.25C118.4 149.506 118.19 148.666 118.19 147.73C118.19 146.794 118.4 145.96 118.82 145.228C119.252 144.484 119.846 143.908 120.602 143.5C121.358 143.08 122.21 142.87 123.158 142.87C124.106 142.87 124.952 143.08 125.696 143.5C126.452 143.908 127.04 144.484 127.46 145.228C127.892 145.96 128.108 146.794 128.108 147.73C128.108 148.666 127.892 149.506 127.46 150.25C127.04 150.982 126.452 151.558 125.696 151.978C124.952 152.398 124.106 152.608 123.158 152.608ZM123.158 151.096C123.77 151.096 124.316 150.958 124.796 150.682C125.288 150.394 125.672 149.998 125.948 149.494C126.224 148.978 126.362 148.39 126.362 147.73C126.362 147.07 126.224 146.488 125.948 145.984C125.672 145.468 125.288 145.072 124.796 144.796C124.316 144.52 123.77 144.382 123.158 144.382C122.546 144.382 121.994 144.52 121.502 144.796C121.022 145.072 120.638 145.468 120.35 145.984C120.074 146.488 119.936 147.07 119.936 147.73C119.936 148.39 120.074 148.978 120.35 149.494C120.638 149.998 121.022 150.394 121.502 150.682C121.994 150.958 122.546 151.096 123.158 151.096ZM138.676 142.96L134.05 153.454C133.642 154.426 133.162 155.11 132.61 155.506C132.07 155.902 131.416 156.1 130.648 156.1C130.18 156.1 129.724 156.022 129.28 155.866C128.848 155.722 128.488 155.506 128.2 155.218L128.938 153.922C129.43 154.39 130 154.624 130.648 154.624C131.068 154.624 131.416 154.51 131.692 154.282C131.98 154.066 132.238 153.688 132.466 153.148L132.772 152.482L128.56 142.96H130.36L133.69 150.592L136.984 142.96H138.676ZM148.647 147.784C148.647 147.916 148.635 148.09 148.611 148.306H140.871C140.979 149.146 141.345 149.824 141.969 150.34C142.605 150.844 143.391 151.096 144.327 151.096C145.467 151.096 146.385 150.712 147.081 149.944L148.035 151.06C147.603 151.564 147.063 151.948 146.415 152.212C145.779 152.476 145.065 152.608 144.273 152.608C143.265 152.608 142.371 152.404 141.591 151.996C140.811 151.576 140.205 150.994 139.773 150.25C139.353 149.506 139.143 148.666 139.143 147.73C139.143 146.806 139.347 145.972 139.755 145.228C140.175 144.484 140.745 143.908 141.465 143.5C142.197 143.08 143.019 142.87 143.931 142.87C144.843 142.87 145.653 143.08 146.361 143.5C147.081 143.908 147.639 144.484 148.035 145.228C148.443 145.972 148.647 146.824 148.647 147.784ZM143.931 144.328C143.103 144.328 142.407 144.58 141.843 145.084C141.291 145.588 140.967 146.248 140.871 147.064H146.991C146.895 146.26 146.565 145.606 146.001 145.102C145.449 144.586 144.759 144.328 143.931 144.328ZM159.668 147.784C159.668 147.916 159.656 148.09 159.632 148.306H151.892C152 149.146 152.366 149.824 152.99 150.34C153.626 150.844 154.412 151.096 155.348 151.096C156.488 151.096 157.406 150.712 158.102 149.944L159.056 151.06C158.624 151.564 158.084 151.948 157.436 152.212C156.8 152.476 156.086 152.608 155.294 152.608C154.286 152.608 153.392 152.404 152.612 151.996C151.832 151.576 151.226 150.994 150.794 150.25C150.374 149.506 150.164 148.666 150.164 147.73C150.164 146.806 150.368 145.972 150.776 145.228C151.196 144.484 151.766 143.908 152.486 143.5C153.218 143.08 154.04 142.87 154.952 142.87C155.864 142.87 156.674 143.08 157.382 143.5C158.102 143.908 158.66 144.484 159.056 145.228C159.464 145.972 159.668 146.824 159.668 147.784ZM154.952 144.328C154.124 144.328 153.428 144.58 152.864 145.084C152.312 145.588 151.988 146.248 151.892 147.064H158.012C157.916 146.26 157.586 145.606 157.022 145.102C156.47 144.586 155.78 144.328 154.952 144.328Z"
        fill="#002D4C" />
    <g opacity="0.3">
        <path
            d="M277 41.6428C282.049 41.6428 286.143 37.5494 286.143 32.5C286.143 27.4505 282.049 23.3571 277 23.3571C271.951 23.3571 267.857 27.4505 267.857 32.5C267.857 37.5494 271.951 41.6428 277 41.6428Z"
            stroke="#001015" stroke-linecap="round" stroke-linejoin="round" />
    </g>
    <rect x="1" y="0.5" width="308" height="177" rx="24" stroke="#D9D9D9" />
</svg>
    