<svg width="100" height="101" viewBox="0 0 100 101" fill="none" xmlns="http://www.w3.org/2000/svg">
    <path
        d="M50 94.2061C76.7706 94.2061 98.4725 92.939 98.4725 91.3761C98.4725 89.8131 76.7706 88.5461 50 88.5461C23.2293 88.5461 1.52747 89.8131 1.52747 91.3761C1.52747 92.939 23.2293 94.2061 50 94.2061Z"
        fill="#F5F5F5" />
    <path d="M27.7075 14.2036L28.64 15.4086H71.355L72.295 14.2036H27.7075Z" fill="#01B7F8" />
    <g opacity="0.4">
        <path d="M27.7075 14.2036L28.64 15.4086H71.355L72.295 14.2036H27.7075Z" fill="black" />
    </g>
    <path d="M71.365 12.6511H28.5525V88.5461H71.365V12.6511Z" fill="#01B7F8" />
    <g opacity="0.4">
        <path d="M71.365 12.6511H28.5525V88.5461H71.365V12.6511Z" fill="white" />
    </g>
    <g opacity="0.8">
        <path
            d="M30.2875 14.5186C30.304 14.6289 30.2966 14.7414 30.2658 14.8485C30.235 14.9557 30.1814 15.0549 30.1089 15.1396C30.0363 15.2242 29.9464 15.2923 29.8452 15.3391C29.7441 15.386 29.634 15.4105 29.5225 15.4111C29.2827 15.4017 29.0543 15.3063 28.879 15.1425C28.7037 14.9786 28.5931 14.7572 28.5675 14.5186C28.5502 14.4076 28.5571 14.2942 28.5877 14.1862C28.6183 14.0781 28.6719 13.9779 28.7447 13.8925C28.8176 13.807 28.9081 13.7383 29.0099 13.691C29.1118 13.6438 29.2227 13.6191 29.335 13.6186C29.5755 13.6288 29.8043 13.7255 29.9792 13.8908C30.1542 14.0562 30.2637 14.2791 30.2875 14.5186Z"
            fill="#F0F0F0" />
        <path
            d="M31.8651 14.5186C31.8804 14.6295 31.8718 14.7424 31.8399 14.8497C31.8081 14.957 31.7536 15.0563 31.6802 15.1408C31.6068 15.2253 31.5162 15.2932 31.4144 15.3398C31.3126 15.3864 31.202 15.4107 31.0901 15.4111C30.852 15.3993 30.626 15.303 30.4528 15.1393C30.2795 14.9757 30.1704 14.7556 30.1451 14.5186C30.1286 14.4073 30.1362 14.2938 30.1674 14.1858C30.1986 14.0777 30.2527 13.9776 30.3259 13.8923C30.3992 13.807 30.4899 13.7384 30.592 13.6911C30.6941 13.6439 30.8051 13.6192 30.9176 13.6186C31.1572 13.63 31.3847 13.7272 31.5587 13.8924C31.7326 14.0576 31.8414 14.2799 31.8651 14.5186Z"
            fill="#F0F0F0" />
        <path
            d="M33.44 14.5186C33.4545 14.6298 33.4452 14.7428 33.4127 14.8501C33.3802 14.9574 33.3253 15.0565 33.2515 15.141C33.1777 15.2254 33.0868 15.2931 32.9848 15.3397C32.8828 15.3863 32.7721 15.4106 32.66 15.4111C32.4215 15.4023 32.1944 15.3068 32.0213 15.1424C31.8483 14.9781 31.7411 14.7563 31.72 14.5186C31.7047 14.4069 31.7134 14.2933 31.7455 14.1852C31.7776 14.0772 31.8324 13.9772 31.9063 13.892C31.9801 13.8069 32.0712 13.7384 32.1736 13.6913C32.276 13.6441 32.3873 13.6193 32.5 13.6186C32.7396 13.6276 32.9677 13.7242 33.1409 13.89C33.3142 14.0559 33.4206 14.2795 33.44 14.5186Z"
            fill="#F0F0F0" />
        <path
            d="M35.015 14.5186C35.028 14.6301 35.0174 14.7431 34.9838 14.8502C34.9503 14.9574 34.8945 15.0562 34.8203 15.1404C34.746 15.2246 34.6548 15.2922 34.5527 15.3388C34.4506 15.3855 34.3398 15.4101 34.2275 15.4111C33.9898 15.4021 33.7637 15.3063 33.5918 15.1419C33.42 14.9774 33.3144 14.7557 33.295 14.5186C33.2813 14.4064 33.2914 14.2925 33.3247 14.1845C33.3581 14.0764 33.4139 13.9766 33.4885 13.8917C33.563 13.8067 33.6547 13.7384 33.7575 13.6914C33.8604 13.6443 33.9719 13.6195 34.085 13.6186C34.3236 13.6278 34.5504 13.7248 34.722 13.8908C34.8936 14.0569 34.998 14.2804 35.015 14.5186Z"
            fill="#F0F0F0" />
        <path
            d="M36.5925 14.5186C36.6044 14.6305 36.5927 14.7437 36.5582 14.8508C36.5238 14.9579 36.4673 15.0567 36.3925 15.1407C36.3176 15.2248 36.226 15.2922 36.1236 15.3388C36.0211 15.3853 35.91 15.41 35.7975 15.4111C35.5604 15.4025 35.3349 15.3066 35.1642 15.1419C34.9935 14.9772 34.8896 14.7552 34.8725 14.5186C34.8595 14.4061 34.8704 14.2921 34.9043 14.1841C34.9382 14.076 34.9945 13.9763 35.0695 13.8915C35.1445 13.8066 35.2364 13.7384 35.3395 13.6914C35.4425 13.6444 35.5543 13.6196 35.6675 13.6186C35.906 13.6268 36.1328 13.7236 36.3038 13.89C36.4748 14.0563 36.5777 14.2805 36.5925 14.5186Z"
            fill="#F0F0F0" />
        <path
            d="M38.1676 14.5186C38.1783 14.6309 38.1656 14.7442 38.1303 14.8514C38.0949 14.9585 38.0377 15.0572 37.9623 15.1411C37.8869 15.225 37.7948 15.2923 37.692 15.3388C37.5892 15.3852 37.4779 15.4099 37.3651 15.4111C37.1286 15.4029 36.9037 15.3069 36.7341 15.1419C36.5645 14.9769 36.4623 14.7547 36.4476 14.5186C36.4357 14.4057 36.4476 14.2916 36.4824 14.1835C36.5173 14.0755 36.5743 13.9759 36.6498 13.8912C36.7254 13.8064 36.8178 13.7384 36.9212 13.6915C37.0245 13.6445 37.1365 13.6197 37.2501 13.6186C37.4879 13.6264 37.7142 13.7232 37.8841 13.8899C38.054 14.0566 38.1552 14.2809 38.1676 14.5186Z"
            fill="#F0F0F0" />
        <path
            d="M39.75 14.5186C39.7597 14.6313 39.746 14.7448 39.7097 14.8519C39.6735 14.9591 39.6156 15.0576 39.5396 15.1414C39.4636 15.2252 39.3711 15.2924 39.2679 15.3388C39.1648 15.3852 39.0531 15.4098 38.94 15.4111C38.7042 15.4033 38.4798 15.3073 38.3113 15.142C38.1428 14.9767 38.0424 14.7543 38.03 14.5186C38.0189 14.4054 38.0315 14.2912 38.0669 14.1831C38.1023 14.0751 38.1598 13.9756 38.2358 13.8909C38.3117 13.8063 38.4044 13.7384 38.508 13.6915C38.6116 13.6446 38.7238 13.6198 38.8375 13.6186C39.0749 13.6265 39.3006 13.7235 39.4697 13.8903C39.6388 14.057 39.7389 14.2814 39.75 14.5186Z"
            fill="#F0F0F0" />
        <path
            d="M41.3201 14.5186C41.3286 14.6319 41.3138 14.7457 41.2766 14.8531C41.2394 14.9604 41.1805 15.059 41.1036 15.1427C41.0268 15.2263 40.9335 15.2933 40.8297 15.3395C40.7259 15.3857 40.6137 15.41 40.5001 15.4111C40.2648 15.4037 40.0409 15.3076 39.8735 15.1421C39.7061 14.9765 39.6076 14.7538 39.5976 14.5186C39.588 14.4051 39.6018 14.2909 39.6382 14.183C39.6747 14.0751 39.7329 13.9758 39.8094 13.8914C39.8858 13.807 39.9788 13.7392 40.0826 13.6922C40.1864 13.6453 40.2987 13.6202 40.4126 13.6186C40.6498 13.6254 40.8756 13.7222 41.0441 13.8893C41.2126 14.0565 41.3113 14.2814 41.3201 14.5186Z"
            fill="#F0F0F0" />
        <path
            d="M42.8951 14.5186C42.9025 14.6319 42.8869 14.7455 42.8491 14.8525C42.8113 14.9595 42.7522 15.0578 42.6752 15.1413C42.5983 15.2247 42.5052 15.2917 42.4016 15.3381C42.298 15.3845 42.1861 15.4093 42.0726 15.4111C41.8376 15.4042 41.614 15.3082 41.4473 15.1424C41.2806 14.9766 41.1832 14.7536 41.1751 14.5186C41.1665 14.4045 41.1814 14.2899 41.2189 14.1818C41.2564 14.0737 41.3156 13.9744 41.3929 13.8901C41.4702 13.8058 41.5639 13.7382 41.6684 13.6915C41.7728 13.6448 41.8857 13.62 42.0001 13.6186C42.2361 13.6256 42.4605 13.7228 42.627 13.8902C42.7935 14.0576 42.8894 14.2825 42.8951 14.5186Z"
            fill="#F0F0F0" />
        <path
            d="M44.4725 14.5186C44.4785 14.6324 44.4616 14.7462 44.4227 14.8533C44.3837 14.9603 44.3236 15.0585 44.2459 15.1418C44.1682 15.2251 44.0745 15.2919 43.9704 15.3382C43.8663 15.3844 43.7539 15.4092 43.64 15.4111C43.4053 15.4054 43.1819 15.3094 43.0161 15.1432C42.8504 14.977 42.755 14.7533 42.75 14.5186C42.7425 14.4043 42.7583 14.2898 42.7965 14.1818C42.8347 14.0739 42.8944 13.9748 42.972 13.8906C43.0496 13.8065 43.1435 13.7389 43.248 13.6922C43.3526 13.6454 43.4655 13.6204 43.58 13.6186C43.8161 13.6244 44.0409 13.7213 44.2073 13.889C44.3736 14.0568 44.4687 14.2824 44.4725 14.5186Z"
            fill="#F0F0F0" />
        <path
            d="M46.0475 14.5186C46.0525 14.6325 46.0347 14.7463 45.9951 14.8533C45.9555 14.9602 45.8949 15.0581 45.8168 15.1413C45.7388 15.2245 45.6449 15.2912 45.5407 15.3375C45.4365 15.3839 45.324 15.4089 45.21 15.4111C44.9763 15.4047 44.754 15.3083 44.5896 15.142C44.4252 14.9757 44.3313 14.7524 44.3275 14.5186C44.3211 14.404 44.3379 14.2892 44.3769 14.1812C44.4159 14.0733 44.4764 13.9743 44.5546 13.8902C44.6328 13.8062 44.7272 13.7388 44.8321 13.6921C44.937 13.6454 45.0502 13.6204 45.165 13.6186C45.4002 13.6244 45.624 13.7217 45.7887 13.8897C45.9534 14.0577 46.0463 14.2833 46.0475 14.5186Z"
            fill="#F0F0F0" />
        <path
            d="M47.6226 14.5186C47.6266 14.6329 47.6078 14.7469 47.5673 14.8538C47.5269 14.9608 47.4655 15.0587 47.3869 15.1417C47.3083 15.2248 47.2139 15.2914 47.1093 15.3376C47.0047 15.3839 46.8919 15.4088 46.7776 15.4111C46.5445 15.4046 46.3231 15.308 46.1599 15.1415C45.9967 14.975 45.9044 14.7517 45.9026 14.5186C45.8975 14.4037 45.9156 14.2889 45.9555 14.181C45.9955 14.0732 46.0567 13.9744 46.1354 13.8906C46.2142 13.8067 46.3089 13.7394 46.414 13.6927C46.5191 13.646 46.6325 13.6208 46.7476 13.6186C46.9823 13.6238 47.2056 13.7211 47.3693 13.8895C47.533 14.0578 47.6239 14.2838 47.6226 14.5186Z"
            fill="#F0F0F0" />
        <path
            d="M49.2 14.5186C49.203 14.6333 49.1833 14.7474 49.142 14.8544C49.1007 14.9614 49.0387 15.0592 48.9594 15.1422C48.8802 15.2251 48.7853 15.2916 48.6803 15.3377C48.5753 15.3839 48.4622 15.4088 48.3475 15.4111C48.1148 15.4058 47.8934 15.3093 47.7311 15.1424C47.5688 14.9754 47.4786 14.7514 47.48 14.5186C47.476 14.4033 47.495 14.2884 47.5358 14.1805C47.5767 14.0726 47.6385 13.9739 47.7179 13.8901C47.7972 13.8064 47.8924 13.7392 47.9979 13.6926C48.1034 13.646 48.2172 13.6208 48.3325 13.6186C48.5664 13.6245 48.7885 13.7222 48.9509 13.8907C49.1132 14.0591 49.2027 14.2847 49.2 14.5186Z"
            fill="#F0F0F0" />
        <path
            d="M50.775 14.5186C50.7671 14.6868 50.7101 14.8489 50.611 14.985C50.5119 15.1211 50.375 15.225 50.2173 15.284C50.0596 15.343 49.8881 15.3545 49.724 15.3169C49.5599 15.2793 49.4104 15.1944 49.2941 15.0727C49.1778 14.951 49.0998 14.7978 49.0697 14.6322C49.0397 14.4666 49.0589 14.2957 49.125 14.1409C49.1911 13.9861 49.3012 13.8541 49.4416 13.7612C49.582 13.6684 49.7466 13.6188 49.915 13.6186C50.0307 13.6209 50.1447 13.646 50.2507 13.6925C50.3566 13.739 50.4523 13.806 50.5322 13.8897C50.6121 13.9733 50.6747 14.072 50.7164 14.1799C50.7581 14.2878 50.778 14.4029 50.775 14.5186Z"
            fill="#F0F0F0" />
        <path
            d="M52.35 14.5186C52.352 14.7512 52.2624 14.9752 52.1005 15.1422C51.9387 15.3093 51.7175 15.4058 51.485 15.4111C51.3703 15.4088 51.2572 15.3839 51.1522 15.3377C51.0472 15.2916 50.9523 15.2251 50.8731 15.1422C50.7939 15.0592 50.7318 14.9614 50.6905 14.8544C50.6492 14.7474 50.6295 14.6333 50.6325 14.5186C50.6285 14.2847 50.7172 14.0588 50.8793 13.8901C51.0414 13.7215 51.2636 13.6238 51.4975 13.6186C51.6128 13.6208 51.7266 13.646 51.8321 13.6926C51.9376 13.7392 52.0328 13.8064 52.1121 13.8901C52.1915 13.9739 52.2534 14.0726 52.2942 14.1805C52.335 14.2884 52.354 14.4033 52.35 14.5186Z"
            fill="#F0F0F0" />
        <path
            d="M53.9276 14.5186C53.927 14.7521 53.8351 14.9761 53.6717 15.1429C53.5082 15.3096 53.286 15.4059 53.0526 15.4111C52.9382 15.4088 52.8254 15.3839 52.7208 15.3376C52.6162 15.2914 52.5219 15.2248 52.4432 15.1417C52.3646 15.0587 52.3033 14.9608 52.2628 14.8538C52.2223 14.7469 52.2036 14.6329 52.2076 14.5186C52.2062 14.2842 52.2968 14.0586 52.4599 13.8903C52.6231 13.7221 52.8457 13.6245 53.0801 13.6186C53.1952 13.6208 53.3087 13.646 53.4139 13.6927C53.5192 13.7394 53.6141 13.8066 53.693 13.8904C53.772 13.9742 53.8334 14.073 53.8736 14.1809C53.9139 14.2887 53.9322 14.4035 53.9276 14.5186Z"
            fill="#F0F0F0" />
        <path
            d="M55.5 14.5186C55.4969 14.7522 55.4035 14.9755 55.2395 15.1418C55.0755 15.3082 54.8535 15.4047 54.62 15.4111C54.5059 15.4089 54.3933 15.3839 54.289 15.3376C54.1847 15.2913 54.0906 15.2246 54.0124 15.1415C53.9341 15.0583 53.8733 14.9604 53.8334 14.8535C53.7935 14.7465 53.7753 14.6327 53.78 14.5186C53.7812 14.2833 53.8741 14.0577 54.0388 13.8897C54.2036 13.7217 54.4273 13.6244 54.6625 13.6186C54.7772 13.6208 54.8903 13.646 54.995 13.6928C55.0997 13.7396 55.194 13.807 55.2721 13.891C55.3503 13.975 55.4107 14.0738 55.4499 14.1816C55.489 14.2894 55.5061 14.404 55.5 14.5186Z"
            fill="#F0F0F0" />
        <path
            d="M57.08 14.5186C57.0743 14.7531 56.9788 14.9764 56.8132 15.1425C56.6475 15.3086 56.4245 15.4048 56.19 15.4111C56.0762 15.4093 55.9639 15.3844 55.8599 15.3381C55.7559 15.2918 55.6624 15.225 55.5849 15.1416C55.5073 15.0583 55.4475 14.9601 55.4088 14.8531C55.3702 14.746 55.3536 14.6322 55.36 14.5186C55.3631 14.283 55.4573 14.0578 55.6227 13.89C55.7881 13.7223 56.012 13.625 56.2475 13.6186C56.3621 13.6204 56.4751 13.6454 56.5797 13.6922C56.6844 13.7389 56.7785 13.8064 56.8563 13.8905C56.9341 13.9746 56.994 14.0737 57.0325 14.1816C57.0709 14.2896 57.0871 14.4042 57.08 14.5186Z"
            fill="#F0F0F0" />
        <path
            d="M58.655 14.5186C58.6467 14.7548 58.5484 14.9789 58.3801 15.1449C58.2118 15.3109 57.9863 15.4061 57.75 15.4111C57.6364 15.4093 57.5243 15.3845 57.4206 15.3381C57.3169 15.2917 57.2236 15.2248 57.1465 15.1414C57.0694 15.058 57.01 14.9597 56.9719 14.8527C56.9338 14.7456 56.9179 14.632 56.925 14.5186C56.9306 14.2825 57.0266 14.0576 57.1931 13.8902C57.3596 13.7228 57.584 13.6256 57.82 13.6186C57.9352 13.6186 58.0492 13.6424 58.1548 13.6885C58.2604 13.7346 58.3554 13.802 58.4338 13.8865C58.5122 13.971 58.5723 14.0707 58.6103 14.1795C58.6484 14.2882 58.6636 14.4037 58.655 14.5186Z"
            fill="#F0F0F0" />
        <path
            d="M60.23 14.5186C60.2206 14.7536 60.1225 14.9763 59.9556 15.1419C59.7886 15.3075 59.565 15.4037 59.33 15.4111C59.2156 15.411 59.1025 15.3874 58.9977 15.3418C58.8928 15.2961 58.7986 15.2293 58.7207 15.1455C58.6428 15.0618 58.583 14.9629 58.545 14.855C58.5071 14.7472 58.4917 14.6326 58.5 14.5186C58.5081 14.2821 58.6059 14.0575 58.7735 13.8903C58.941 13.7232 59.1659 13.6261 59.4025 13.6186C59.5174 13.6185 59.6311 13.6423 59.7364 13.6885C59.8416 13.7347 59.9361 13.8022 60.0139 13.8868C60.0917 13.9714 60.1511 14.0713 60.1883 14.18C60.2255 14.2888 60.2397 14.4041 60.23 14.5186Z"
            fill="#F0F0F0" />
        <path
            d="M61.8075 14.5186C61.7951 14.7543 61.6947 14.9767 61.5262 15.142C61.3577 15.3073 61.1333 15.4033 60.8975 15.4111C60.7844 15.4098 60.6727 15.3852 60.5696 15.3388C60.4664 15.2924 60.3739 15.2252 60.2979 15.1414C60.2219 15.0576 60.164 14.9591 60.1278 14.8519C60.0915 14.7448 60.0778 14.6313 60.0875 14.5186C60.0975 14.2814 60.1968 14.0567 60.3656 13.8898C60.5344 13.7228 60.7602 13.626 60.9975 13.6186C61.1111 13.6202 61.2233 13.6453 61.3268 13.6922C61.4303 13.7392 61.523 13.8071 61.5991 13.8916C61.6752 13.9761 61.7329 14.0754 61.7688 14.1833C61.8046 14.2912 61.8178 14.4054 61.8075 14.5186Z"
            fill="#F0F0F0" />
        <path
            d="M63.3825 14.5186C63.3684 14.7545 63.2667 14.9767 63.0976 15.1417C62.9284 15.3068 62.7037 15.4028 62.4675 15.4111C62.3546 15.4098 62.2432 15.3852 62.1402 15.3388C62.0373 15.2923 61.9451 15.225 61.8695 15.1412C61.7939 15.0573 61.7364 14.9587 61.7008 14.8516C61.6652 14.7444 61.6521 14.631 61.6625 14.5186C61.6749 14.2809 61.7761 14.0566 61.946 13.8899C62.1159 13.7232 62.3421 13.6264 62.58 13.6186C62.6935 13.6197 62.8056 13.6445 62.9089 13.6915C63.0123 13.7384 63.1047 13.8064 63.1803 13.8912C63.2558 13.9759 63.3128 14.0755 63.3477 14.1835C63.3825 14.2916 63.3944 14.4057 63.3825 14.5186Z"
            fill="#F0F0F0" />
        <path
            d="M64.9575 14.5186C64.9415 14.7552 64.8383 14.9774 64.6679 15.1423C64.4975 15.3072 64.272 15.403 64.035 15.4111C63.9234 15.4082 63.8136 15.3823 63.7125 15.3351C63.6114 15.2878 63.5212 15.2201 63.4475 15.1363C63.3738 15.0525 63.3182 14.9544 63.2842 14.8481C63.2502 14.7418 63.2386 14.6296 63.25 14.5186C63.2647 14.2805 63.3677 14.0563 63.5387 13.89C63.7097 13.7236 63.9365 13.6268 64.175 13.6186C64.2872 13.6213 64.3975 13.6474 64.4991 13.6952C64.6006 13.7429 64.6911 13.8113 64.7647 13.896C64.8383 13.9807 64.8935 14.0798 64.9267 14.187C64.9599 14.2942 64.9704 14.4071 64.9575 14.5186Z"
            fill="#F0F0F0" />
        <path
            d="M66.5351 14.5186C66.5163 14.7554 66.4112 14.9771 66.2397 15.1417C66.0683 15.3062 65.8425 15.402 65.6051 15.4111C65.4926 15.4104 65.3815 15.3861 65.2791 15.3396C65.1767 15.2931 65.0852 15.2256 65.0107 15.1413C64.9361 15.0571 64.8802 14.9581 64.8464 14.8508C64.8127 14.7435 64.8021 14.6303 64.8151 14.5186C64.8316 14.2802 64.9357 14.0564 65.1074 13.8902C65.2791 13.724 65.5063 13.6273 65.7451 13.6186C65.8581 13.6195 65.9697 13.6443 66.0725 13.6914C66.1753 13.7384 66.267 13.8067 66.3416 13.8917C66.4162 13.9766 66.472 14.0764 66.5053 14.1845C66.5387 14.2925 66.5488 14.4064 66.5351 14.5186Z"
            fill="#F0F0F0" />
        <path
            d="M68.11 14.5186C68.089 14.7559 67.9821 14.9774 67.8096 15.1416C67.6371 15.3059 67.4106 15.4017 67.1725 15.4111C67.0605 15.4102 66.9498 15.3856 66.8479 15.3389C66.746 15.2922 66.6551 15.2245 66.5813 15.1402C66.5074 15.0559 66.4521 14.957 66.4192 14.8499C66.3862 14.7427 66.3763 14.6298 66.39 14.5186C66.4094 14.28 66.5154 14.0567 66.6881 13.8908C66.8609 13.725 67.0883 13.6282 67.3275 13.6186C67.4403 13.6194 67.5517 13.6442 67.6542 13.6913C67.7567 13.7384 67.8479 13.8068 67.922 13.892C67.996 13.9771 68.051 14.077 68.0834 14.185C68.1159 14.2931 68.1249 14.4068 68.11 14.5186Z"
            fill="#F0F0F0" />
        <path
            d="M69.6875 14.5186C69.6624 14.7543 69.5544 14.9735 69.3827 15.137C69.211 15.3005 68.9868 15.3976 68.75 15.4111C68.6381 15.4107 68.5275 15.3864 68.4257 15.3398C68.324 15.2932 68.2333 15.2253 68.1599 15.1408C68.0865 15.0563 68.0321 14.957 68.0002 14.8497C67.9683 14.7424 67.9597 14.6295 67.975 14.5186C67.9987 14.2803 68.1071 14.0584 68.2805 13.8932C68.4539 13.728 68.6809 13.6306 68.92 13.6186C69.032 13.6203 69.1422 13.6458 69.2435 13.6935C69.3448 13.7411 69.4347 13.8098 69.5073 13.895C69.58 13.9802 69.6336 14.0798 69.6647 14.1874C69.6958 14.2949 69.7036 14.4078 69.6875 14.5186Z"
            fill="#F0F0F0" />
        <path
            d="M71.2626 14.5186C71.237 14.7568 71.1268 14.9779 70.952 15.1417C70.7772 15.3055 70.5494 15.4011 70.3101 15.4111C70.1985 15.4105 70.0884 15.3859 69.9871 15.3391C69.8858 15.2923 69.7958 15.2243 69.723 15.1397C69.6503 15.0551 69.5965 14.9559 69.5654 14.8487C69.5343 14.7416 69.5265 14.629 69.5426 14.5186C69.5664 14.2791 69.6759 14.0562 69.8509 13.8908C70.0258 13.7255 70.2546 13.6288 70.4951 13.6186C70.6074 13.6191 70.7183 13.6438 70.8201 13.691C70.922 13.7383 71.0125 13.807 71.0854 13.8925C71.1582 13.9779 71.2118 14.0781 71.2424 14.1862C71.273 14.2942 71.2799 14.4076 71.2626 14.5186Z"
            fill="#F0F0F0" />
    </g>
    <path d="M27.705 12.9836H72.2975L72.295 14.2036H27.7075L27.705 12.9836Z" fill="#01B7F8" />
    <path d="M27.7025 11.7635L28.6325 12.9835H71.36L72.3 11.7635H27.7025Z" fill="#01B7F8" />
    <g opacity="0.4">
        <path d="M27.7025 11.7635L28.6325 12.9835H71.36L72.3 11.7635H27.7025Z" fill="black" />
    </g>
    <path d="M27.6975 10.5386H72.3025L72.3 11.7636H27.7025L27.6975 10.5386Z" fill="#01B7F8" />
    <g opacity="0.8">
        <path d="M28.63 11.7635H71.3625L71.36 12.9835H28.6325L28.63 11.7635Z" fill="white" />
    </g>
    <g opacity="0.7">
        <path d="M71.3751 37.0011H28.5651V37.5386H71.3751V37.0011Z" fill="white" />
    </g>
    <g opacity="0.8">
        <path d="M71.3725 63.6786H28.6525V64.2136H71.3725V63.6786Z" fill="white" />
    </g>
    <path d="M42.73 17.7461H37.4375V23.4636H42.73V17.7461Z" fill="#01B7F8" />
    <path d="M52.895 17.7461H47.6025V23.4636H52.895V17.7461Z" fill="#01B7F8" />
    <path d="M63.06 17.7461H57.7675V23.4636H63.06V17.7461Z" fill="#01B7F8" />
    <path d="M42.73 26.3061H37.4375V32.0236H42.73V26.3061Z" fill="#01B7F8" />
    <path d="M52.895 26.3061H47.6025V32.0236H52.895V26.3061Z" fill="#01B7F8" />
    <path d="M63.06 26.3061H57.7675V32.0236H63.06V26.3061Z" fill="#01B7F8" />
    <path d="M42.73 67.7961H37.4375V73.5136H42.73V67.7961Z" fill="#01B7F8" />
    <path d="M52.895 67.7961H47.6025V73.5136H52.895V67.7961Z" fill="#01B7F8" />
    <path d="M63.06 67.7961H57.7675V73.5136H63.06V67.7961Z" fill="#01B7F8" />
    <path d="M37.06 79.8336H31.7675V85.5511H37.06V79.8336Z" fill="#01B7F8" />
    <path d="M68.155 79.8336H62.8625V85.5511H68.155V79.8336Z" fill="#01B7F8" />
    <path d="M42.73 42.0436H37.4375V47.7611H42.73V42.0436Z" fill="#01B7F8" />
    <path d="M52.895 42.0436H47.6025V47.7611H52.895V42.0436Z" fill="#01B7F8" />
    <path d="M63.06 42.0436H57.7675V47.7611H63.06V42.0436Z" fill="#01B7F8" />
    <path d="M42.73 50.6036H37.4375V56.3211H42.73V50.6036Z" fill="#01B7F8" />
    <path d="M52.895 50.6036H47.6025V56.3211H52.895V50.6036Z" fill="#01B7F8" />
    <path d="M63.06 50.6036H57.7675V56.3211H63.06V50.6036Z" fill="#01B7F8" />
    <g opacity="0.8">
        <path d="M43.8376 80.5036H49.315L49.2925 86.1911H43.8L43.8376 80.5036Z" fill="white" />
    </g>
    <g opacity="0.8">
        <path d="M50.3725 80.5036H56.075L55.805 86.1911H50.3125L50.3725 80.5036Z" fill="white" />
    </g>
    <path d="M56.9475 87.3361H42.495L42.4375 86.1911H57.0025L56.9475 87.3361Z" fill="#01B7F8" />
    <g opacity="0.1">
        <path d="M56.9475 87.3361H42.495L42.4375 86.1911H57.0025L56.9475 87.3361Z" fill="white" />
    </g>
    <path d="M57.53 88.5461H41.985L41.9225 87.4186H57.5875L57.53 88.5461Z" fill="#01B7F8" />
    <g opacity="0.4">
        <path d="M58.045 78.4886H41.43L41.3575 77.201H58.11L58.045 78.4886Z" fill="white" />
    </g>
    <path d="M41.4301 78.4886L43.8376 80.5036H56.0751L58.0451 78.4886H41.4301Z" fill="#263238" />
    <path
        d="M42.5551 79.4311L43.4051 86.1811H44.0801L43.8076 79.4311C43.6142 79.3317 43.3999 79.2799 43.1826 79.2799C42.9652 79.2799 42.7509 79.3317 42.5576 79.4311H42.5551Z"
        fill="#01B7F8" />
    <path
        d="M57.155 79.4311L56.3225 86.1811H55.6475L55.8975 79.4311C56.0832 79.3094 56.3004 79.2445 56.5225 79.2445C56.7445 79.2445 56.9617 79.3094 57.1475 79.4311H57.155Z"
        fill="#01B7F8" />
    <path
        d="M35.86 8.68358C35.86 7.57858 36.7075 6.79608 37.86 6.79608C38.1556 6.78192 38.4505 6.83639 38.7216 6.95523C38.9927 7.07407 39.2326 7.25405 39.4225 7.48108L38.77 8.07108C38.6691 7.93939 38.5393 7.8326 38.3906 7.75892C38.242 7.68525 38.0784 7.64664 37.9125 7.64608C37.6373 7.64608 37.3734 7.75539 37.1789 7.94996C36.9843 8.14453 36.875 8.40842 36.875 8.68358C36.875 8.95874 36.9843 9.22263 37.1789 9.4172C37.3734 9.61177 37.6373 9.72108 37.9125 9.72108C38.0785 9.72109 38.2423 9.68273 38.391 9.60901C38.5398 9.53529 38.6695 9.42819 38.77 9.29608L39.4225 9.88858C39.2322 10.1152 38.9922 10.2948 38.7213 10.4136C38.4503 10.5324 38.1556 10.5872 37.86 10.5736C36.7075 10.5736 35.86 9.79858 35.86 8.68358Z"
        fill="#263238" />
    <path
        d="M39.61 8.68358C39.61 7.59608 40.4675 6.79608 41.63 6.79608C42.7925 6.79608 43.6475 7.59608 43.6475 8.68358C43.6475 9.77108 42.7925 10.5736 41.63 10.5736C40.4675 10.5736 39.61 9.77358 39.61 8.68358ZM42.61 8.68358C42.5992 8.49186 42.5325 8.3075 42.4182 8.15327C42.3038 7.99905 42.1467 7.88172 41.9663 7.8158C41.786 7.74988 41.5903 7.73824 41.4034 7.78234C41.2165 7.82644 41.0466 7.92433 40.9148 8.06392C40.7829 8.20351 40.6949 8.37868 40.6615 8.56778C40.6281 8.75687 40.6509 8.9516 40.727 9.1279C40.803 9.3042 40.9291 9.45434 41.0896 9.55976C41.2501 9.66519 41.438 9.72127 41.63 9.72108C41.764 9.72242 41.8968 9.69604 42.0201 9.64361C42.1435 9.59119 42.2546 9.51384 42.3466 9.41642C42.4387 9.319 42.5095 9.20362 42.5549 9.07751C42.6002 8.9514 42.6189 8.81729 42.61 8.68358Z"
        fill="#263238" />
    <path
        d="M47.4651 10.5011V8.57609L46.5301 10.1436H46.0751L45.1451 8.62859V10.5011H44.1951V6.86859H45.0426L46.3176 8.96359L47.5676 6.86859H48.4126V10.5011H47.4651Z"
        fill="#263238" />
    <path
        d="M52.4075 8.21359C52.4075 9.03609 51.785 9.55109 50.795 9.55109H50.16V10.5011H49.135V6.86859H50.795C51.785 6.86859 52.4075 7.38109 52.4075 8.21359ZM51.37 8.21359C51.37 7.87609 51.1575 7.67859 50.7325 7.67859H50.16V8.74109H50.7325C51.1575 8.74109 51.37 8.54859 51.37 8.21359Z"
        fill="#263238" />
    <path
        d="M55.1575 9.7986H53.62L53.335 10.5061H52.2875L53.89 6.8736H54.9025L56.5 10.5011H55.4325L55.1575 9.7986ZM54.855 9.0486L54.3875 7.8886L53.9225 9.0486H54.855Z"
        fill="#263238" />
    <path
        d="M60.25 6.86859V10.5011H59.405L57.8025 8.56609V10.5011H56.8025V6.86859H57.6475L59.25 8.79859V6.86859H60.25Z"
        fill="#263238" />
    <path
        d="M62.925 9.19859V10.5011H61.8975V9.18359L60.5125 6.86859H61.5975L62.46 8.31109L63.32 6.86859H64.32L62.925 9.19859Z"
        fill="#263238" />
    <path d="M28.63 11.7635H71.3625L71.36 12.9835H28.6325L28.63 11.7635Z" fill="#01B7F8" />
    <path
        d="M84.3 13.9111C84.1213 13.8693 83.9466 13.8124 83.7775 13.7411C83.4625 13.6186 83.06 13.4111 82.6375 13.2086C82.2874 13.0348 81.9104 12.9215 81.5225 12.8736C81.225 12.8411 81.0225 12.8736 80.995 12.7961C80.9675 12.7186 81.1425 12.5736 81.495 12.5061C81.9606 12.4429 82.4344 12.5241 82.8525 12.7386C83.2441 12.9429 83.6011 13.2078 83.91 13.5236C84.155 13.7561 84.3 13.9111 84.3 13.9111Z"
        fill="#01B7F8" />
    <path
        d="M86.135 12.4336L85.7575 12.5811C85.5325 12.6736 85.2575 12.8036 84.9325 12.9411C84.3 13.2211 83.76 13.5111 83.6825 13.3836C83.6425 13.3261 83.725 13.1836 83.9075 13.0086C84.1497 12.7792 84.4308 12.5947 84.7375 12.4636C85.052 12.3273 85.3976 12.2789 85.7375 12.3236C85.8406 12.3372 85.942 12.3615 86.04 12.3961L86.135 12.4336Z"
        fill="#01B7F8" />
    <path
        d="M80.8951 15.0136L80.7925 14.9511C80.7275 14.9086 80.6301 14.8536 80.5126 14.7911C80.2161 14.6312 79.9066 14.4965 79.5875 14.3886C78.8525 14.1236 78.195 14.1836 78.175 14.0711C78.175 14.0211 78.325 13.9361 78.61 13.8961C78.9829 13.8527 79.3608 13.8946 79.715 14.0186C80.0696 14.1434 80.3863 14.3568 80.635 14.6386C80.7105 14.7217 80.7775 14.8122 80.835 14.9086L80.8951 15.0136Z"
        fill="#01B7F8" />
    <path
        d="M81.6175 13.4936L81.3525 13.6461L80.765 13.9736C80.3225 14.2236 79.98 14.5011 79.895 14.4261C79.8575 14.3886 79.895 14.2711 80.0075 14.1186C80.1602 13.9136 80.3544 13.7432 80.5775 13.6186C80.8021 13.4993 81.0533 13.4391 81.3075 13.4436C81.4126 13.4472 81.5167 13.464 81.6175 13.4936Z"
        fill="#01B7F8" />
    <path
        d="M80.285 12.6285C80.285 12.6285 80.035 12.541 79.655 12.3785C79.275 12.216 78.7625 11.991 78.2 11.806C77.7263 11.6463 77.2268 11.5768 76.7275 11.601C76.3425 11.6235 76.0975 11.6985 76.0625 11.6285C76.0275 11.5585 76.23 11.3785 76.66 11.241C77.2219 11.0956 77.8143 11.12 78.3625 11.311C78.89 11.4973 79.3758 11.7852 79.7925 12.1585C79.9654 12.3058 80.1298 12.4627 80.285 12.6285Z"
        fill="#01B7F8" />
    <path
        d="M81.975 10.4811L81.835 10.5211C81.7425 10.5436 81.615 10.5836 81.4625 10.6311C81.0793 10.7578 80.7037 10.9064 80.3375 11.0761C79.4825 11.4586 78.9325 12.0261 78.815 11.9361C78.76 11.8936 78.83 11.6861 79.0475 11.4161C79.3397 11.0683 79.7062 10.7907 80.12 10.6036C80.5336 10.4169 80.9877 10.3378 81.44 10.3736C81.5752 10.3831 81.7092 10.4057 81.84 10.4411L81.975 10.4811Z"
        fill="#01B7F8" />
    <path
        d="M24.07 20.226C23.8917 20.1828 23.717 20.126 23.5475 20.056C23.2325 19.9335 22.8275 19.726 22.4075 19.521C22.0561 19.3483 21.6784 19.2351 21.29 19.186C20.9925 19.1535 20.79 19.186 20.7625 19.1085C20.735 19.031 20.91 18.886 21.2625 18.821C21.7281 18.7564 22.2023 18.8376 22.62 19.0535C23.0124 19.2556 23.3695 19.5198 23.6775 19.836C23.925 20.0685 24.07 20.226 24.07 20.226Z"
        fill="#01B7F8" />
    <path
        d="M25.905 18.7485L25.525 18.896C25.3 18.986 25.025 19.116 24.7 19.256C24.0675 19.5335 23.53 19.8235 23.45 19.6985C23.4075 19.6385 23.4925 19.4985 23.6725 19.321C23.9152 19.0923 24.1961 18.9078 24.5025 18.776C24.8175 18.6416 25.1626 18.5933 25.5025 18.636C25.6046 18.6505 25.7051 18.6747 25.8025 18.7085C25.8374 18.72 25.8716 18.7334 25.905 18.7485Z"
        fill="#01B7F8" />
    <path
        d="M20.665 21.3261L20.56 21.2636C20.495 21.2211 20.4 21.1661 20.2825 21.1036C19.9856 20.9446 19.6762 20.81 19.3575 20.7011C18.6225 20.4511 17.9625 20.4961 17.9425 20.3836C17.9425 20.3336 18.095 20.2486 18.3775 20.2086C18.7514 20.165 19.1303 20.2077 19.485 20.3336C19.8395 20.4573 20.1563 20.6699 20.405 20.9511C20.4798 21.0342 20.546 21.1246 20.6025 21.2211L20.665 21.3261Z"
        fill="#01B7F8" />
    <path
        d="M21.385 19.7986L21.1225 19.9511L20.535 20.2986C20.09 20.5486 19.75 20.8261 19.665 20.7486C19.625 20.7136 19.665 20.5961 19.7775 20.4411C19.931 20.2408 20.1253 20.0755 20.3475 19.9561C20.5709 19.8357 20.8213 19.7746 21.075 19.7786C21.1788 19.7723 21.2829 19.779 21.385 19.7986Z"
        fill="#01B7F8" />
</svg>
    