<svg width="263" height="66" viewBox="0 0 263 66" fill="none" xmlns="http://www.w3.org/2000/svg">
    <path
        d="M36.3271 52.746C34.3999 52.746 32.5633 52.2874 30.8197 51.3675C29.2133 50.5409 27.7673 49.3904 26.4816 47.9186C26.2514 47.688 26.0444 47.447 25.8608 47.1957C25.6771 46.9443 25.4934 46.6774 25.3098 46.4028C24.9424 46.9547 24.5751 47.46 24.2078 47.9212C22.9221 49.393 21.4761 50.5435 19.8697 51.3701C18.033 52.2899 16.1731 52.7486 14.2924 52.7486C12.4118 52.7486 10.6191 52.2899 8.78506 51.3701C7.17864 50.5435 5.7326 49.393 4.44694 47.9212C3.20784 46.4494 2.2533 44.7729 1.58848 42.8865C0.923668 41.0027 0.589966 39.023 0.589966 36.9553V21.092C0.589966 20.3095 0.853823 19.6565 1.38154 19.1253C1.90925 18.5967 2.56372 18.3324 3.34495 18.3324C4.12617 18.3324 4.77805 18.5967 5.30836 19.1253C5.83607 19.6539 6.09993 20.3095 6.09993 21.092V36.8879C6.09993 38.3131 6.31722 39.6708 6.7544 40.9561C7.18899 42.2439 7.82276 43.3711 8.64796 44.335C9.42919 45.2549 10.301 45.9674 11.2658 46.4727C12.2307 46.9806 13.2396 47.2319 14.295 47.2319C16.4524 47.2319 18.3564 46.2654 20.0093 44.335C20.8346 43.3685 21.4657 42.2439 21.9029 40.9561C22.3375 39.6683 22.5574 38.3131 22.5574 36.8879V21.092C22.5574 20.3095 22.8212 19.6565 23.349 19.1253C23.8767 18.5941 24.5311 18.3324 25.3124 18.3324C26.0936 18.3324 26.7455 18.5967 27.2758 19.1253C27.8035 19.6539 28.0673 20.3095 28.0673 21.092V36.8879C28.0673 38.3131 28.2976 39.6708 28.7554 40.9561C29.2133 42.2439 29.8574 43.3711 30.6826 44.335C31.4639 45.2549 32.3356 45.9674 33.3005 46.4727C34.2654 46.9806 35.2743 47.2319 36.3297 47.2319C38.4871 47.2319 40.3936 46.2654 42.044 44.335C42.8692 43.3685 43.5004 42.2439 43.9376 40.9561C44.3722 39.6683 44.5921 38.3131 44.5921 36.8879V21.092C44.5921 20.3095 44.8559 19.6565 45.3836 19.1253C45.9113 18.5941 46.5658 18.3324 47.347 18.3324C48.1283 18.3324 48.7801 18.5967 49.3104 19.1253C49.8382 19.6539 50.102 20.3095 50.102 21.092V36.9553C50.102 39.0256 49.7683 41.0027 49.1035 42.8865C48.4387 44.7729 47.4841 46.4494 46.245 47.9212C45.006 49.393 43.5366 50.5435 41.8371 51.3701C40.091 52.2899 38.2569 52.7486 36.3297 52.7486L36.3271 52.746Z"
        fill="#002D4C" />
    <path
        d="M95.1983 52.6786C94.4171 52.6786 93.7627 52.4143 93.2349 51.8857C92.7072 51.3571 92.4434 50.7016 92.4434 49.919V34.1931C92.4434 32.0787 92.834 30.055 93.6152 28.1245C94.3964 26.1941 95.5424 24.4684 97.0583 22.9525C98.5276 21.4807 100.225 20.3432 102.154 19.5373C104.082 18.7341 106.102 18.3298 108.213 18.3298C108.994 18.3298 109.646 18.5941 110.176 19.1227C110.704 19.6513 110.968 20.3069 110.968 21.0895C110.968 21.872 110.704 22.5276 110.176 23.0562C109.648 23.5848 108.994 23.8491 108.213 23.8491C106.79 23.8491 105.458 24.1237 104.219 24.6757C102.98 25.2276 101.888 25.9635 100.949 26.8834C100.007 27.8032 99.2726 28.8967 98.7449 30.1586C98.2172 31.4231 97.9533 32.7679 97.9533 34.1931V49.919C97.9533 50.7016 97.6895 51.3571 97.1618 51.8857C96.634 52.4143 95.9796 52.6786 95.1983 52.6786Z"
        fill="#002D4C" />
    <path
        d="M132.519 52.6786C131.737 52.6786 131.083 52.4143 130.555 51.8857C130.028 51.3571 129.764 50.7015 129.764 49.919C129.764 48.4938 129.533 47.149 129.076 45.8845C128.615 44.62 127.974 43.4695 127.148 42.4356C126.323 41.4017 125.345 40.5285 124.223 39.8133C123.097 39.1007 121.869 38.5825 120.539 38.2612V49.919C120.539 50.7015 120.275 51.3571 119.747 51.8857C119.22 52.4143 118.565 52.6786 117.784 52.6786C117.003 52.6786 116.348 52.4143 115.821 51.8857C115.293 51.3571 115.029 50.7015 115.029 49.919V4.6716C115.029 3.88907 115.293 3.23609 115.821 2.70489C116.348 2.1737 117.003 1.91199 117.784 1.91199C118.565 1.91199 119.217 2.17629 119.747 2.70489C120.275 3.23349 120.539 3.88907 120.539 4.6716V32.0527C121.869 31.7314 123.097 31.2132 124.223 30.5006C125.348 29.788 126.323 28.9148 127.148 27.8783C127.974 26.8444 128.618 25.6939 129.076 24.4294C129.533 23.1649 129.764 21.8201 129.764 20.3949C129.764 19.6124 130.028 18.9594 130.555 18.4282C131.083 17.8996 131.737 17.6353 132.519 17.6353C133.3 17.6353 133.952 17.8996 134.482 18.4282C135.01 18.9568 135.274 19.6124 135.274 20.3949C135.274 22.74 134.836 24.9813 133.965 27.1191C133.093 29.2568 131.831 31.1536 130.178 32.8093C129.259 33.6826 128.271 34.4651 127.216 35.1544C128.271 35.8436 129.257 36.6262 130.178 37.4994C131.831 39.1552 133.093 41.0519 133.965 43.1896C134.836 45.3274 135.274 47.5688 135.274 49.9138C135.274 50.6963 135.01 51.3519 134.482 51.8805C133.954 52.4091 133.3 52.6734 132.519 52.6734V52.6786Z"
        fill="#002D4C" />
    <path
        d="M142.09 52.334C141.309 52.334 140.654 52.0697 140.127 51.5411C139.599 51.0125 139.335 50.3569 139.335 49.5743V15.9847C139.335 14.0077 139.702 12.1576 140.437 10.4318C141.172 8.70868 142.18 7.2032 143.466 5.91279C144.752 4.62497 146.255 3.6144 147.975 2.87851C149.695 2.14261 151.545 1.77466 153.519 1.77466C154.3 1.77466 154.952 2.03896 155.482 2.56756C156.01 3.09617 156.274 3.75174 156.274 4.53428C156.274 5.31681 156.01 5.97239 155.482 6.50099C154.954 7.02959 154.3 7.29389 153.519 7.29389C152.37 7.29389 151.281 7.51155 150.249 7.94946C149.217 8.38737 148.309 8.97298 147.53 9.70888C146.749 10.4448 146.118 11.318 145.637 12.3312C145.155 13.3443 144.889 14.4248 144.845 15.5727V19.4362H153.521C154.302 19.4362 154.954 19.7005 155.485 20.2291C156.012 20.7577 156.276 21.4133 156.276 22.1958C156.276 22.9784 156.012 23.6339 155.485 24.1625C154.957 24.6911 154.302 24.9554 153.521 24.9554H144.845V49.5795C144.845 50.3621 144.581 51.0176 144.053 51.5462C143.526 52.0748 142.871 52.3391 142.09 52.3391V52.334Z"
        fill="#002D4C" />
    <path
        d="M191.667 52.8159C190.885 52.8159 190.231 52.5516 189.703 52.023C189.176 51.4944 188.912 50.8388 188.912 50.0563V48.4705C187.305 49.8956 185.526 50.9762 183.575 51.7121C181.625 52.448 179.571 52.8159 177.413 52.8159C175.116 52.8159 172.938 52.4013 170.871 51.5747C168.804 50.7481 166.97 49.551 165.364 47.9885C163.757 46.3794 162.518 44.563 161.646 42.5392C160.775 40.5155 160.338 38.3778 160.338 36.1235C160.338 33.8691 160.772 31.734 161.646 29.7103C162.518 27.6865 163.757 25.8727 165.364 24.261C166.97 22.6519 168.807 21.434 170.871 20.6048C172.938 19.7782 175.116 19.3636 177.413 19.3636C179.71 19.3636 181.888 19.7782 183.955 20.6048C186.022 21.4314 187.856 22.6519 189.463 24.261C191.069 25.8701 192.308 27.6865 193.18 29.7103C194.052 31.734 194.489 33.8717 194.489 36.1235C194.489 36.3541 194.476 36.5951 194.455 36.8464C194.432 37.1003 194.422 37.3646 194.422 37.6393V50.0537C194.422 50.8362 194.158 51.4918 193.63 52.0204C193.102 52.549 192.448 52.8133 191.667 52.8133V52.8159ZM177.413 24.8829C175.807 24.8829 174.304 25.1835 172.904 25.7794C171.502 26.378 170.287 27.1839 169.254 28.1944C168.222 29.2076 167.394 30.3918 166.776 31.7469C166.155 33.1047 165.847 34.5636 165.847 36.1261C165.847 37.6885 166.158 39.08 166.776 40.4378C167.397 41.7956 168.222 42.9798 169.254 43.9903C170.287 45.0035 171.502 45.8067 172.904 46.4053C174.304 47.0039 175.807 47.3019 177.413 47.3019C178.883 47.3019 180.282 47.0505 181.614 46.5426C182.946 46.0374 184.129 45.3351 185.161 44.4386C186.193 43.542 187.041 42.4848 187.709 41.267C188.374 40.0491 188.777 38.7483 188.914 37.3698V34.8875C188.777 33.509 188.374 32.2082 187.709 30.9903C187.044 29.7725 186.193 28.7153 185.161 27.8161C184.129 26.9196 182.946 26.207 181.614 25.6784C180.282 25.1498 178.883 24.8855 177.413 24.8855V24.8829Z"
        fill="#002D4C" />
    <path
        d="M215.698 52.8159C213.494 52.8159 211.394 52.4143 209.397 51.6084C207.4 50.8052 205.597 49.665 203.99 48.1933V48.1233C202.337 46.5608 201.052 44.7677 200.133 42.744C199.215 40.7203 198.711 38.5359 198.618 36.1909C198.524 33.8925 198.868 31.6977 199.65 29.6041C200.431 27.513 201.623 25.6162 203.23 23.9138C204.79 22.258 206.593 20.9728 208.636 20.0503C210.677 19.1305 212.848 18.6252 215.142 18.5319C217.437 18.4412 219.641 18.7962 221.752 19.6021C223.862 20.4079 225.746 21.5921 227.399 23.1546C227.95 23.6599 228.237 24.3051 228.26 25.085C228.283 25.8676 228.043 26.5335 227.538 27.0854C227.031 27.6373 226.39 27.925 225.611 27.9483C224.83 27.9716 224.165 27.7306 223.614 27.2253C221.273 25.0176 218.518 23.9604 215.352 24.0537C213.789 24.147 212.31 24.4916 210.91 25.0876C209.508 25.6862 208.282 26.5594 207.227 27.7073C205.023 30.0523 203.99 32.8353 204.127 36.0535C204.218 39.2251 205.436 41.9148 207.778 44.1225C208.923 45.2263 210.222 46.0426 211.668 46.5712C213.114 47.0998 214.571 47.3407 216.04 47.2941C217.509 47.2501 218.955 46.9158 220.378 46.2939C221.801 45.672 223.063 44.7884 224.165 43.6379C224.67 43.086 225.301 42.7984 226.059 42.7751C226.817 42.7518 227.471 42.9927 228.022 43.498C228.573 44.0033 228.86 44.6355 228.884 45.3948C228.907 46.154 228.666 46.8096 228.162 47.3615C226.599 49.0639 224.799 50.3724 222.755 51.2923C220.712 52.2122 218.544 52.7175 216.247 52.8107H215.696L215.698 52.8159Z"
        fill="#002D4C" />
    <path
        d="M249.782 52.2641C247.579 52.2641 245.491 51.8624 243.517 51.0592C241.543 50.2559 239.774 49.0976 238.214 47.5818C236.608 46.0219 235.356 44.2443 234.461 42.2465C233.566 40.2513 233.095 38.1291 233.048 35.88C233.002 33.6308 233.382 31.4879 234.184 29.446C234.986 27.4042 236.168 25.58 237.73 23.9734C239.246 22.3669 241.013 21.1283 243.033 20.2577C245.054 19.387 247.188 18.9051 249.436 18.8118C251.64 18.7677 253.774 19.1461 255.841 19.9467C257.908 20.75 259.742 21.9316 261.348 23.4915L261.418 23.5614C261.923 24.1574 262.176 24.8 262.176 25.4893C262.176 26.1785 261.923 26.8212 261.418 27.4171L244.342 45.2445C245.398 45.8405 246.523 46.2551 247.716 46.4831C248.908 46.7137 250.101 46.7345 251.296 46.5531C252.488 46.3691 253.637 46.0012 254.739 45.4518C255.841 44.9025 256.85 44.1666 257.768 43.2493C258.319 42.7 258.984 42.4124 259.765 42.389C260.546 42.3657 261.211 42.6067 261.762 43.112C262.313 43.6639 262.587 44.3298 262.587 45.1098C262.587 45.8897 262.334 46.5557 261.829 47.105C260.27 48.7115 258.49 49.9501 256.493 50.8208C254.496 51.694 252.372 52.1526 250.124 52.1967C250.031 52.1967 249.964 52.2096 249.917 52.2304C249.87 52.2537 249.824 52.2641 249.78 52.2641H249.782ZM249.782 24.331C248.313 24.331 246.877 24.6187 245.478 25.1939C244.076 25.7691 242.826 26.632 241.724 27.7799C240.806 28.6998 240.095 29.7337 239.59 30.8842C239.083 32.0346 238.776 33.2059 238.662 34.403C238.548 35.6001 238.628 36.7947 238.902 37.9892C239.179 39.1863 239.637 40.3109 240.278 41.3681L255.22 25.7795C253.474 24.813 251.663 24.331 249.78 24.331H249.782Z"
        fill="#002D4C" />
    <path
        d="M63.1112 27.3756C64.1666 26.3158 65.3954 25.4841 66.7949 24.8855C68.1943 24.2869 69.6973 23.9864 71.3063 23.9864C72.9153 23.9864 74.4157 24.2869 75.8177 24.8855C77.2172 25.4841 78.446 26.3158 79.5014 27.3756C79.6463 27.5233 79.7885 27.6736 79.9256 27.8265C80.0809 28.0001 80.3033 28.0986 80.5361 28.0986H85.3244C85.9633 28.0986 86.3643 27.399 86.0383 26.8496C85.3218 25.637 84.4526 24.5176 83.4282 23.494C81.8218 21.8875 79.9748 20.6489 77.8846 19.7783C75.7945 18.9076 73.6034 18.4697 71.3089 18.4697C69.0144 18.4697 66.7638 18.905 64.6995 19.7783C62.6326 20.6489 60.796 21.8901 59.1921 23.494C58.1678 24.5176 57.2934 25.6344 56.5691 26.8445C56.238 27.3964 56.6389 28.0986 57.2805 28.0986H62.0816C62.3145 28.0986 62.5369 28.0027 62.6921 27.8291C62.8292 27.6736 62.9715 27.5233 63.119 27.3756H63.1112Z"
        fill="#01B7F8" />
    <path
        d="M88.3821 36.3541C88.3821 36.3541 88.3821 36.3359 88.3795 36.3282C88.3691 35.5715 88.1027 34.9315 87.5879 34.4133C87.0731 33.895 86.4057 33.6204 85.6271 33.6204C84.8485 33.6204 84.1914 33.8847 83.6637 34.4133C83.136 34.9419 82.8721 35.5974 82.8721 36.3774C82.8721 36.3878 82.8721 36.3981 82.8721 36.4085C82.8695 38.0047 82.5695 38.7406 81.9771 40.1398C81.3795 41.5468 80.5543 42.7802 79.4989 43.84C78.4435 44.8998 77.2147 45.7316 75.8152 46.3301C74.4132 46.9287 72.9102 47.2293 71.3038 47.2293C69.6973 47.2293 68.1944 46.9287 66.7923 46.3301C65.3903 45.7316 64.1641 44.8998 63.1087 43.84C62.0532 42.7802 61.2151 41.5468 60.5943 40.1398C59.9734 38.7328 59.6656 37.9995 59.6656 36.3852C59.6656 36.3852 59.6656 36.3826 59.6656 36.38C59.6656 35.6 59.3992 34.9445 58.8714 34.4159C58.3437 33.8873 57.6893 33.623 56.9106 33.623C56.132 33.623 55.4749 33.8873 54.9472 34.4159C54.4195 34.9445 54.1556 35.6 54.1556 36.38C54.1556 36.3903 54.1556 36.4007 54.1556 36.4111C54.1582 38.6913 54.5954 40.1035 55.4646 42.1842C56.3363 44.2727 57.5754 46.1177 59.1819 47.7242C60.7883 49.3307 62.6249 50.5693 64.6892 51.4426C66.7561 52.3158 68.9575 52.7485 71.2986 52.7485C73.6397 52.7485 75.7842 52.3132 77.8743 51.4426C79.9619 50.5719 81.8089 49.3307 83.4179 47.7242C85.0244 46.1177 86.2531 44.2727 87.1016 42.1842C87.9501 40.0957 88.3743 38.6835 88.3743 36.3878V36.3567L88.3821 36.3541Z"
        fill="#002D4C" />
    <path
        d="M71.3063 14.4741C75.138 14.4741 78.2442 11.3627 78.2442 7.52452C78.2442 3.68638 75.138 0.574951 71.3063 0.574951C67.4746 0.574951 64.3684 3.68638 64.3684 7.52452C64.3684 11.3627 67.4746 14.4741 71.3063 14.4741Z"
        fill="#01B7F8" />
    <path
        d="M137.141 65.5724C132.987 65.4558 129.733 61.924 129.733 57.76V49.2168C129.733 48.157 130.591 47.2968 131.65 47.2968C133.735 47.2968 135.424 48.9888 135.424 51.0773V58.3456C135.424 59.5168 136.409 60.4885 137.573 60.3823C138.737 60.276 139.301 59.2162 139.301 57.9336V49.1805C139.301 48.1415 140.142 47.2993 141.179 47.2993H142.393C143.828 47.2993 144.992 48.4654 144.992 49.9035V57.9362C144.992 62.222 141.451 65.6968 137.144 65.575L137.141 65.5724Z"
        fill="#002D4C" />
</svg>
    
    